bold.ufo
<glyph name="parenright.deva" format="1">
  <advance width="625"/>
  <unicode hex="0029"/>
  <outline>
    <contour>
      <point x="551" y="505" type="curve" smooth="yes"/>
      <point x="551" y="189"/>
      <point x="455" y="-89"/>
      <point x="280" y="-292" type="curve"/>
      <point x="57" y="-292" type="line"/>
      <point x="138" y="-181"/>
      <point x="200" y="-58"/>
      <point x="244" y="79" type="curve" smooth="yes"/>
      <point x="289" y="216"/>
      <point x="311" y="359"/>
      <point x="311" y="507" type="curve" smooth="yes"/>
      <point x="311" y="799"/>
      <point x="224" y="1084"/>
      <point x="55" y="1316" type="curve"/>
      <point x="280" y="1316" type="line"/>
      <point x="456" y="1105"/>
      <point x="551" y="821"/>
    </contour>
  </outline>
</glyph>
<glyph name="question.deva" format="1">
  <advance width="879"/>
  <unicode hex="003F"/>
  <outline>
    <contour>
      <point x="248" y="436" type="line"/>
      <point x="248" y="503" type="line" smooth="yes"/>
      <point x="248" y="560"/>
      <point x="260" y="610"/>
      <point x="285" y="653" type="curve" smooth="yes"/>
      <point x="310" y="696"/>
      <point x="355" y="741"/>
      <point x="420" y="789" type="curve" smooth="yes"/>
      <point x="483" y="834"/>
      <point x="525" y="871"/>
      <point x="545" y="899" type="curve" smooth="yes"/>
      <point x="565" y="927"/>
      <point x="575" y="959"/>
      <point x="575" y="994" type="curve" smooth="yes"/>
      <point x="575" y="1071"/>
      <point x="515" y="1113"/>
      <point x="411" y="1113" type="curve" smooth="yes"/>
      <point x="321" y="1113"/>
      <point x="218" y="1084"/>
      <point x="103" y="1025" type="curve"/>
      <point x="5" y="1222" type="line"/>
      <point x="139" y="1297"/>
      <point x="281" y="1335"/>
      <point x="431" y="1335" type="curve" smooth="yes"/>
      <point x="554" y="1335"/>
      <point x="652" y="1305"/>
      <point x="725" y="1245" type="curve" smooth="yes"/>
      <point x="798" y="1186"/>
      <point x="835" y="1107"/>
      <point x="835" y="1008" type="curve" smooth="yes"/>
      <point x="835" y="942"/>
      <point x="820" y="885"/>
      <point x="790" y="837" type="curve" smooth="yes"/>
      <point x="760" y="789"/>
      <point x="703" y="735"/>
      <point x="619" y="675" type="curve"/>
      <point x="562" y="632"/>
      <point x="525" y="600"/>
      <point x="510" y="577" type="curve" smooth="yes"/>
      <point x="495" y="555"/>
      <point x="487" y="526"/>
      <point x="487" y="490" type="curve" smooth="yes"/>
      <point x="487" y="436" type="line"/>
    </contour>
    <contour>
      <point x="220" y="129" type="curve" smooth="yes"/>
      <point x="220" y="229"/>
      <point x="275" y="282"/>
      <point x="378" y="282" type="curve" smooth="yes"/>
      <point x="478" y="282"/>
      <point x="535" y="226"/>
      <point x="535" y="129" type="curve" smooth="yes"/>
      <point x="535" y="34"/>
      <point x="477" y="-24"/>
      <point x="378" y="-24" type="curve" smooth="yes"/>
      <point x="277" y="-24"/>
      <point x="220" y="32"/>
    </contour>
  </outline>
</glyph>
<glyph name="G" format="1">
  <advance width="1335"/>
  <unicode hex="0047"/>
  <outline>
    <contour>
      <point x="665" y="739" type="line"/>
      <point x="1187" y="739" type="line"/>
      <point x="1187" y="57" type="line"/>
      <point x="1018" y="1"/>
      <point x="875" y="-18"/>
      <point x="719" y="-18" type="curve" smooth="yes"/>
      <point x="322" y="-18"/>
      <point x="107" y="223"/>
      <point x="107" y="660" type="curve" smooth="yes"/>
      <point x="107" y="872"/>
      <point x="168" y="1037"/>
      <point x="289" y="1156" type="curve" smooth="yes"/>
      <point x="411" y="1275"/>
      <point x="580" y="1335"/>
      <point x="795" y="1335" type="curve" smooth="yes"/>
      <point x="930" y="1335"/>
      <point x="1060" y="1308"/>
      <point x="1185" y="1254" type="curve"/>
      <point x="1093" y="1030" type="line"/>
      <point x="997" y="1078"/>
      <point x="897" y="1102"/>
      <point x="793" y="1102" type="curve" smooth="yes"/>
      <point x="672" y="1102"/>
      <point x="576" y="1061"/>
      <point x="503" y="980" type="curve" smooth="yes"/>
      <point x="430" y="899"/>
      <point x="394" y="791"/>
      <point x="394" y="654" type="curve" smooth="yes"/>
      <point x="394" y="369"/>
      <point x="514" y="214"/>
      <point x="737" y="214" type="curve" smooth="yes"/>
      <point x="795" y="214"/>
      <point x="854" y="220"/>
      <point x="914" y="232" type="curve"/>
      <point x="914" y="507" type="line"/>
      <point x="665" y="507" type="line"/>
    </contour>
  </outline>
</glyph>
<glyph name="x" format="1">
  <advance width="1066"/>
  <unicode hex="0078"/>
  <outline>
    <contour>
      <point x="350" y="514" type="line"/>
      <point x="26" y="1006" type="line"/>
      <point x="337" y="1006" type="line"/>
      <point x="533" y="686" type="line"/>
      <point x="730" y="1006" type="line"/>
      <point x="1041" y="1006" type="line"/>
      <point x="714" y="514" type="line"/>
      <point x="1057" y="0" type="line"/>
      <point x="744" y="0" type="line"/>
      <point x="533" y="345" type="line"/>
      <point x="320" y="0" type="line"/>
      <point x="9" y="0" type="line"/>
    </contour>
  </outline>
</glyph>
<glyph name="visargadeva" format="1">
  <advance width="694"/>
  <unicode hex="0903"/>
  <outline>
    <contour>
      <point x="0" y="0" type="line"/>
      <point x="694" y="0" type="line"/>
      <point x="694" y="20" type="line"/>
      <point x="0" y="20" type="line"/>
    </contour>
  </outline>
</glyph>
<glyph name="adeva" format="1">
  <advance width="1657"/>
  <unicode hex="0905"/>
  <outline>
    <contour>
      <point x="340" y="601" type="line"/>
      <point x="289" y="816" type="line"/>
      <point x="301" y="817" type="line"/>
      <point x="589" y="832"/>
      <point x="650" y="894"/>
      <point x="650" y="984" type="curve" smooth="yes"/>
      <point x="650" y="1042"/>
      <point x="608" y="1085"/>
      <point x="514" y="1085" type="curve" smooth="yes"/>
      <point x="423" y="1085"/>
      <point x="332" y="1055"/>
      <point x="222" y="998" type="curve"/>
      <point x="155" y="1214" type="line"/>
      <point x="268" y="1267"/>
      <point x="382" y="1297"/>
      <point x="523" y="1297" type="curve" smooth="yes"/>
      <point x="780" y="1297"/>
      <point x="908" y="1153"/>
      <point x="908" y="954" type="curve" smooth="yes"/>
      <point x="908" y="748"/>
      <point x="726" y="623"/>
      <point x="361" y="602" type="curve" smooth="yes"/>
    </contour>
    <contour>
      <point x="699" y="783" type="line"/>
      <point x="845" y="718"/>
      <point x="961" y="597"/>
      <point x="961" y="429" type="curve" smooth="yes"/>
      <point x="961" y="248"/>
      <point x="821" y="99"/>
      <point x="583" y="99" type="curve" smooth="yes"/>
      <point x="424" y="99"/>
      <point x="290" y="146"/>
      <point x="106" y="260" type="curve"/>
      <point x="162" y="470" type="line"/>
      <point x="310" y="364"/>
      <point x="400" y="331"/>
      <point x="504" y="331" type="curve" smooth="yes"/>
      <point x="625" y="331"/>
      <point x="697" y="394"/>
      <point x="697" y="486" type="curve" smooth="yes"/>
      <point x="697" y="558"/>
      <point x="641" y="631"/>
      <point x="546" y="665" type="curve"/>
    </contour>
    <contour>
      <point x="762" y="674" type="line"/>
      <point x="803" y="651"/>
      <point x="944" y="640"/>
      <point x="992" y="640" type="curve" smooth="yes"/>
      <point x="1062" y="640"/>
      <point x="1161" y="668"/>
      <point x="1225" y="724" type="curve"/>
      <point x="1225" y="457" type="line"/>
      <point x="1191" y="445"/>
      <point x="1114" y="433"/>
      <point x="1071" y="433" type="curve" smooth="yes"/>
      <point x="1014" y="433"/>
      <point x="849" y="447"/>
      <point x="804" y="471" type="curve"/>
    </contour>
    <contour>
      <point x="1188" y="1132" type="line"/>
      <point x="1476" y="1132" type="line"/>
      <point x="1476" y="0" type="line"/>
      <point x="1188" y="0" type="line"/>
    </contour>
    <contour>
      <point x="1699" y="1096" type="line"/>
      <point x="1004" y="1096" type="line"/>
      <point x="1004" y="1288" type="line"/>
      <point x="1699" y="1288" type="line"/>
    </contour>
  </outline>
</glyph>
<glyph name="aadeva" format="1">
  <advance width="2247"/>
  <unicode hex="0906"/>
  <outline>
    <contour>
      <point x="0" y="0" type="line"/>
      <point x="2247" y="0" type="line"/>
      <point x="2247" y="20" type="line"/>
      <point x="0" y="20" type="line"/>
    </contour>
  </outline>
</glyph>
<glyph name="ideva" format="1">
  <advance width="1045"/>
  <unicode hex="0907"/>
  <outline>
    <contour>
      <point x="520" y="151" type="curve" smooth="yes"/>
      <point x="821" y="-169" type="line"/>
      <point x="632" y="-270" type="line"/>
      <point x="303" y="91" type="line"/>
      <point x="438" y="19" type="line"/>
      <point x="182" y="19"/>
      <point x="90" y="110"/>
      <point x="90" y="190" type="curve" smooth="yes"/>
      <point x="90" y="261"/>
      <point x="147" y="319"/>
      <point x="237" y="319" type="curve" smooth="yes"/>
      <point x="320" y="319"/>
      <point x="409" y="269"/>
    </contour>
    <contour>
      <point x="586" y="1121" type="line"/>
      <point x="859" y="1121" type="line"/>
      <point x="859" y="758" type="line"/>
      <point x="452" y="758" type="line"/>
      <point x="351" y="758"/>
      <point x="317" y="718"/>
      <point x="317" y="671" type="curve" smooth="yes"/>
      <point x="318" y="625"/>
      <point x="351" y="594"/>
      <point x="432" y="559" type="curve"/>
      <point x="338" y="572" type="line"/>
      <point x="444" y="616"/>
      <point x="502" y="636"/>
      <point x="636" y="636" type="curve" smooth="yes"/>
      <point x="837" y="636"/>
      <point x="967" y="515"/>
      <point x="967" y="346" type="curve" smooth="yes"/>
      <point x="967" y="182"/>
      <point x="783" y="21"/>
      <point x="477" y="21" type="curve"/>
      <point x="436" y="223" type="line"/>
      <point x="589" y="223"/>
      <point x="690" y="274"/>
      <point x="690" y="344" type="curve" smooth="yes"/>
      <point x="690" y="395"/>
      <point x="650" y="424"/>
      <point x="597" y="424" type="curve" smooth="yes"/>
      <point x="530" y="424"/>
      <point x="467" y="404"/>
      <point x="389" y="373" type="curve"/>
      <point x="369" y="372" type="line"/>
      <point x="142" y="469"/>
      <point x="55" y="588"/>
      <point x="55" y="721" type="curve" smooth="yes"/>
      <point x="55" y="842"/>
      <point x="145" y="947"/>
      <point x="381" y="947" type="curve" smooth="yes"/>
      <point x="646" y="947" type="line"/>
      <point x="586" y="888" type="line"/>
    </contour>
    <contour>
      <point x="1082" y="1096" type="line"/>
      <point x="-22" y="1096" type="line"/>
      <point x="-22" y="1288" type="line"/>
      <point x="1082" y="1288" type="line"/>
    </contour>
    <contour>
      <point x="614" y="1282" type="move" name="mark0"/>
    </contour>
    <contour>
      <point x="-31" y="8" type="move" name="x51"/>
    </contour>
  </outline>
</glyph>
<glyph name="udeva" format="1">
  <advance width="1077"/>
  <unicode hex="0909"/>
  <outline>
    <contour>
      <point x="319" y="579" type="line"/>
      <point x="268" y="810" type="line"/>
      <point x="289" y="811" type="line"/>
      <point x="565" y="825"/>
      <point x="628" y="893"/>
      <point x="628" y="984" type="curve" smooth="yes"/>
      <point x="628" y="1056"/>
      <point x="581" y="1103"/>
      <point x="476" y="1103" type="curve"/>
      <point x="529" y="1263" type="line"/>
      <point x="747" y="1263"/>
      <point x="891" y="1117"/>
      <point x="891" y="940" type="curve" smooth="yes"/>
      <point x="891" y="749"/>
      <point x="729" y="596"/>
      <point x="346" y="580" type="curve"/>
    </contour>
    <contour>
      <point x="669" y="750" type="line"/>
      <point x="854" y="678"/>
      <point x="971" y="546"/>
      <point x="971" y="378" type="curve" smooth="yes"/>
      <point x="971" y="162"/>
      <point x="812" y="32"/>
      <point x="581" y="32" type="curve" smooth="yes"/>
      <point x="405" y="32"/>
      <point x="232" y="85"/>
      <point x="49" y="207" type="curve"/>
      <point x="108" y="423" type="line"/>
      <point x="269" y="310"/>
      <point x="399" y="269"/>
      <point x="493" y="269" type="curve" smooth="yes"/>
      <point x="620" y="269"/>
      <point x="694" y="337"/>
      <point x="694" y="427" type="curve" smooth="yes"/>
      <point x="694" y="504"/>
      <point x="624" y="592"/>
      <point x="498" y="613" type="curve"/>
    </contour>
    <contour>
      <point x="-67" y="1096" type="line"/>
      <point x="-67" y="1288" type="line"/>
      <point x="1127" y="1288" type="line"/>
      <point x="1127" y="1096" type="line"/>
    </contour>
    <contour>
      <point x="705" y="1282" type="move" name="mark0"/>
    </contour>
    <contour>
      <point x="-127" y="8" type="move" name="x36"/>
    </contour>
  </outline>
</glyph>
<glyph name="uudeva" format="1">
  <advance width="1458"/>
  <unicode hex="090A"/>
  <outline>
    <contour>
      <point x="846" y="373" type="curve"/>
      <point x="715" y="656" type="line"/>
      <point x="816" y="707"/>
      <point x="910" y="742"/>
      <point x="1068" y="742" type="curve" smooth="yes"/>
      <point x="1309" y="742"/>
      <point x="1474" y="582"/>
      <point x="1474" y="371" type="curve" smooth="yes"/>
      <point x="1474" y="238"/>
      <point x="1426" y="124"/>
      <point x="1339" y="16" type="curve"/>
      <point x="1089" y="115" type="line"/>
      <point x="1168" y="225"/>
      <point x="1210" y="311"/>
      <point x="1210" y="401" type="curve" smooth="yes"/>
      <point x="1210" y="473"/>
      <point x="1160" y="511"/>
      <point x="1090" y="511" type="curve" smooth="yes"/>
      <point x="1005" y="511"/>
      <point x="923" y="464"/>
    </contour>
    <contour>
      <point x="1062" y="1096" type="line"/>
      <point x="1062" y="1288" type="line"/>
      <point x="1505" y="1288" type="line"/>
      <point x="1505" y="1096" type="line"/>
    </contour>
    <component base="udeva"/>
    <contour>
      <point x="857" y="1282" type="move" name="mark0"/>
    </contour>
    <contour>
      <point x="25" y="8" type="move" name="x53"/>
    </contour>
  </outline>
</glyph>
<glyph name="kadeva" format="1">
  <advance width="1552"/>
  <unicode hex="0915"/>
  <outline>
    <contour>
      <point x="885" y="427" type="curve"/>
      <point x="874" y="808" type="line"/>
      <point x="937" y="825"/>
      <point x="1002" y="843"/>
      <point x="1088" y="843" type="curve" smooth="yes"/>
      <point x="1340" y="843"/>
      <point x="1516" y="681"/>
      <point x="1516" y="478" type="curve" smooth="yes"/>
      <point x="1516" y="353"/>
      <point x="1473" y="240"/>
      <point x="1400" y="137" type="curve"/>
      <point x="1164" y="223" type="line"/>
      <point x="1235" y="327"/>
      <point x="1268" y="414"/>
      <point x="1268" y="501" type="curve" smooth="yes"/>
      <point x="1268" y="571"/>
      <point x="1214" y="612"/>
      <point x="1135" y="612" type="curve" smooth="yes"/>
      <point x="1059" y="612"/>
      <point x="964" y="542"/>
    </contour>
    <contour>
      <point x="-48" y="1096" type="line"/>
      <point x="-48" y="1288" type="line"/>
      <point x="1631" y="1288" type="line"/>
      <point x="1631" y="1096" type="line"/>
    </contour>
    <contour>
      <point x="697" y="621" type="curve"/>
      <point x="697" y="301" type="line"/>
      <point x="622" y="251"/>
      <point x="558" y="223"/>
      <point x="450" y="223" type="curve" smooth="yes"/>
      <point x="205" y="223"/>
      <point x="42" y="404"/>
      <point x="42" y="623" type="curve" smooth="yes"/>
      <point x="42" y="797"/>
      <point x="176" y="920"/>
      <point x="386" y="920" type="curve" smooth="yes"/>
      <point x="526" y="920"/>
      <point x="611" y="894"/>
      <point x="712" y="842" type="curve"/>
      <point x="712" y="643" type="line"/>
      <point x="619" y="694"/>
      <point x="556" y="712"/>
      <point x="469" y="712" type="curve" smooth="yes"/>
      <point x="352" y="712"/>
      <point x="291" y="649"/>
      <point x="291" y="570" type="curve" smooth="yes"/>
      <point x="291" y="497"/>
      <point x="346" y="448"/>
      <point x="429" y="449" type="curve" smooth="yes"/>
      <point x="531" y="449"/>
      <point x="626" y="511"/>
    </contour>
    <contour>
      <point x="673" y="1132" type="line"/>
      <point x="962" y="1132" type="line"/>
      <point x="962" y="0" type="line"/>
      <point x="673" y="0" type="line"/>
    </contour>
    <contour>
      <point x="-124" y="8" type="move" name="x47"/>
    </contour>
    <contour>
      <point x="717" y="8" type="move" name="x46"/>
    </contour>
    <contour>
      <point x="717" y="8" type="move" name="mark0"/>
    </contour>
  </outline>
</glyph>
<glyph name="ghadeva" format="1">
  <advance width="1380"/>
  <unicode hex="0918"/>
  <outline>
    <contour>
      <point x="380" y="717" type="line"/>
      <point x="173" y="775"/>
      <point x="70" y="898"/>
      <point x="70" y="1038" type="curve" smooth="yes"/>
      <point x="70" y="1106"/>
      <point x="88" y="1168"/>
      <point x="138" y="1220" type="curve"/>
      <point x="415" y="1151" type="line"/>
      <point x="380" y="1105"/>
      <point x="362" y="1068"/>
      <point x="362" y="1016" type="curve" smooth="yes"/>
      <point x="362" y="943"/>
      <point x="416" y="882"/>
      <point x="589" y="873" type="curve"/>
    </contour>
    <contour>
      <point x="-52" y="1096" type="line"/>
      <point x="-52" y="1288" type="line"/>
      <point x="1423" y="1288" type="line"/>
      <point x="1423" y="1096" type="line"/>
    </contour>
    <contour>
      <point x="970" y="630" type="curve"/>
      <point x="972" y="242" type="line"/>
      <point x="885" y="195"/>
      <point x="782" y="170"/>
      <point x="666" y="170" type="curve" smooth="yes"/>
      <point x="407" y="170"/>
      <point x="244" y="353"/>
      <point x="244" y="549" type="curve" smooth="yes"/>
      <point x="244" y="716"/>
      <point x="366" y="899"/>
      <point x="679" y="899" type="curve" smooth="yes"/>
      <point x="687" y="899" type="line"/>
      <point x="759" y="674" type="line"/>
      <point x="747" y="673" type="line"/>
      <point x="568" y="663"/>
      <point x="505" y="591"/>
      <point x="505" y="516" type="curve" smooth="yes"/>
      <point x="505" y="449"/>
      <point x="561" y="401"/>
      <point x="643" y="402" type="curve" smooth="yes"/>
      <point x="776" y="405"/>
      <point x="903" y="505"/>
    </contour>
    <contour>
      <point x="910" y="1132" type="line"/>
      <point x="1199" y="1132" type="line"/>
      <point x="1199" y="0" type="line"/>
      <point x="910" y="0" type="line"/>
    </contour>
  </outline>
</glyph>
<glyph name="jadeva" format="1">
  <advance width="1527"/>
  <unicode hex="091C"/>
  <outline>
    <contour>
      <point x="-59" y="1096" type="line"/>
      <point x="-59" y="1288" type="line"/>
      <point x="1569" y="1288" type="line"/>
      <point x="1569" y="1096" type="line"/>
    </contour>
    <contour>
      <point x="655" y="666" type="line"/>
      <point x="688" y="728" type="line"/>
      <point x="809" y="651"/>
      <point x="886" y="531"/>
      <point x="886" y="395" type="curve" smooth="yes"/>
      <point x="886" y="211"/>
      <point x="754" y="84"/>
      <point x="552" y="84" type="curve" smooth="yes"/>
      <point x="358" y="84"/>
      <point x="179" y="198"/>
      <point x="-19" y="452" type="curve"/>
      <point x="117" y="648" type="line"/>
      <point x="303" y="411"/>
      <point x="408" y="338"/>
      <point x="495" y="338" type="curve" smooth="yes"/>
      <point x="575" y="338"/>
      <point x="623" y="386"/>
      <point x="623" y="460" type="curve" smooth="yes"/>
      <point x="623" y="554"/>
      <point x="545" y="650"/>
      <point x="367" y="693" type="curve"/>
      <point x="367" y="893" type="line"/>
      <point x="1101" y="893" type="line"/>
      <point x="1101" y="666" type="line"/>
    </contour>
    <contour>
      <point x="1057" y="1132" type="line"/>
      <point x="1346" y="1132" type="line"/>
      <point x="1346" y="0" type="line"/>
      <point x="1057" y="0" type="line"/>
    </contour>
  </outline>
</glyph>
<glyph name="tthadeva" format="1">
  <advance width="1249"/>
  <unicode hex="0920"/>
  <outline>
    <contour>
      <point x="902" y="497" type="curve" smooth="yes"/>
      <point x="902" y="571"/>
      <point x="857" y="641"/>
      <point x="787" y="685" type="curve"/>
      <point x="635" y="685" type="line"/>
      <point x="414" y="685"/>
      <point x="332" y="587"/>
      <point x="332" y="472" type="curve" smooth="yes"/>
      <point x="332" y="350"/>
      <point x="432" y="259"/>
      <point x="606" y="259" type="curve" smooth="yes"/>
      <point x="802" y="259"/>
      <point x="902" y="366"/>
    </contour>
    <contour>
      <point x="1255" y="1096" type="line"/>
      <point x="-37" y="1096" type="line"/>
      <point x="-37" y="1288" type="line"/>
      <point x="1255" y="1288" type="line"/>
    </contour>
    <contour>
      <point x="601" y="1121" type="line"/>
      <point x="875" y="1121" type="line"/>
      <point x="875" y="825" type="line"/>
      <point x="840" y="878" type="line"/>
      <point x="1046" y="807"/>
      <point x="1173" y="640"/>
      <point x="1173" y="451" type="curve" smooth="yes"/>
      <point x="1173" y="235"/>
      <point x="996" y="50"/>
      <point x="665" y="49" type="curve" smooth="yes"/>
      <point x="260" y="48"/>
      <point x="50" y="274"/>
      <point x="50" y="513" type="curve" smooth="yes"/>
      <point x="50" y="735"/>
      <point x="222" y="890"/>
      <point x="507" y="890" type="curve" smooth="yes"/>
      <point x="642" y="890" type="line"/>
      <point x="601" y="851" type="line"/>
    </contour>
    <contour>
      <point x="560" y="8" type="move" name="mark0"/>
    </contour>
    <contour>
      <point x="-58" y="8" type="move" name="x34"/>
    </contour>
    <contour>
      <point x="1306" y="8" type="move" name="x35"/>
    </contour>
  </outline>
</glyph>
<glyph name="ddadeva" format="1">
  <advance width="1168"/>
  <unicode hex="0921"/>
  <outline>
    <contour>
      <point x="693" y="1121" type="line"/>
      <point x="966" y="1121" type="line"/>
      <point x="966" y="758" type="line"/>
      <point x="515" y="758" type="line"/>
      <point x="422" y="758"/>
      <point x="389" y="720"/>
      <point x="389" y="669" type="curve" smooth="yes"/>
      <point x="389" y="624"/>
      <point x="425" y="591"/>
      <point x="503" y="556" type="curve"/>
      <point x="408" y="569" type="line"/>
      <point x="520" y="617"/>
      <point x="589" y="632"/>
      <point x="704" y="632" type="curve" smooth="yes"/>
      <point x="953" y="632"/>
      <point x="1086" y="501"/>
      <point x="1086" y="326" type="curve" smooth="yes"/>
      <point x="1086" y="157"/>
      <point x="935" y="8"/>
      <point x="616" y="8" type="curve" smooth="yes"/>
      <point x="418" y="8"/>
      <point x="272" y="54"/>
      <point x="73" y="159" type="curve"/>
      <point x="121" y="371" type="line"/>
      <point x="313" y="260"/>
      <point x="474" y="210"/>
      <point x="597" y="210" type="curve" smooth="yes"/>
      <point x="738" y="210"/>
      <point x="808" y="269"/>
      <point x="808" y="329" type="curve" smooth="yes"/>
      <point x="808" y="390"/>
      <point x="771" y="419"/>
      <point x="679" y="419" type="curve" smooth="yes"/>
      <point x="593" y="419"/>
      <point x="540" y="404"/>
      <point x="460" y="370" type="curve"/>
      <point x="440" y="369" type="line"/>
      <point x="215" y="467"/>
      <point x="126" y="587"/>
      <point x="126" y="720" type="curve" smooth="yes"/>
      <point x="126" y="841"/>
      <point x="217" y="947"/>
      <point x="444" y="947" type="curve" smooth="yes"/>
      <point x="753" y="947" type="line"/>
      <point x="693" y="888" type="line"/>
    </contour>
    <contour>
      <point x="1185" y="1096" type="line"/>
      <point x="-27" y="1096" type="line"/>
      <point x="-27" y="1288" type="line"/>
      <point x="1185" y="1288" type="line"/>
    </contour>
    <contour>
      <point x="1230" y="8" type="move" name="x45"/>
    </contour>
    <contour>
      <point x="-289" y="8" type="move" name="x44"/>
    </contour>
    <contour>
      <point x="516" y="8" type="move" name="mark0"/>
    </contour>
  </outline>
</glyph>
<glyph name="nnadeva" format="1">
  <advance width="1695"/>
  <unicode hex="0923"/>
  <outline>
    <contour>
      <point x="693" y="1121" type="line"/>
      <point x="981" y="1121" type="line"/>
      <point x="981" y="696" type="line"/>
      <point x="981" y="440"/>
      <point x="862" y="281"/>
      <point x="572" y="281" type="curve" smooth="yes"/>
      <point x="279" y="281"/>
      <point x="118" y="455"/>
      <point x="118" y="708" type="curve" smooth="yes"/>
      <point x="118" y="1121" type="line"/>
      <point x="406" y="1121" type="line"/>
      <point x="406" y="663" type="line"/>
      <point x="406" y="560"/>
      <point x="457" y="506"/>
      <point x="538" y="506" type="curve" smooth="yes"/>
      <point x="639" y="506"/>
      <point x="693" y="577"/>
      <point x="693" y="709" type="curve" smooth="yes"/>
    </contour>
    <contour>
      <point x="-65" y="1096" type="line"/>
      <point x="-65" y="1288" type="line"/>
      <point x="1737" y="1288" type="line"/>
      <point x="1737" y="1096" type="line"/>
    </contour>
    <contour>
      <point x="1226" y="1132" type="line"/>
      <point x="1514" y="1132" type="line"/>
      <point x="1514" y="0" type="line"/>
      <point x="1226" y="0" type="line"/>
    </contour>
  </outline>
</glyph>
<glyph name="tadeva" format="1">
  <advance width="1218"/>
  <unicode hex="0924"/>
  <outline>
    <contour>
      <point x="812" y="887" type="line"/>
      <point x="812" y="646" type="line"/>
      <point x="557" y="646" type="line"/>
      <point x="407" y="646"/>
      <point x="339" y="555"/>
      <point x="339" y="444" type="curve" smooth="yes"/>
      <point x="339" y="342"/>
      <point x="380" y="235"/>
      <point x="482" y="36" type="curve"/>
      <point x="249" y="-16" type="line"/>
      <point x="133" y="184"/>
      <point x="72" y="369"/>
      <point x="72" y="530" type="curve" smooth="yes"/>
      <point x="72" y="742"/>
      <point x="205" y="887"/>
      <point x="499" y="887" type="curve" smooth="yes"/>
    </contour>
    <contour>
      <point x="-14" y="1096" type="line"/>
      <point x="-14" y="1288" type="line"/>
      <point x="1262" y="1288" type="line"/>
      <point x="1262" y="1096" type="line"/>
    </contour>
    <contour>
      <point x="749" y="1132" type="line"/>
      <point x="1038" y="1132" type="line"/>
      <point x="1038" y="0" type="line"/>
      <point x="749" y="0" type="line"/>
    </contour>
  </outline>
</glyph>
<glyph name="nadeva" format="1">
  <advance width="1231"/>
  <unicode hex="0928"/>
  <outline>
    <contour>
      <point x="793" y="838" type="line"/>
      <point x="793" y="603" type="line"/>
      <point x="370" y="603" type="line"/>
      <point x="420" y="654" type="line"/>
      <point x="420" y="416" type="line"/>
      <point x="420" y="340"/>
      <point x="385" y="295"/>
      <point x="315" y="295" type="curve" smooth="yes"/>
      <point x="215" y="295"/>
      <point x="61" y="516"/>
      <point x="61" y="694" type="curve" smooth="yes"/>
      <point x="61" y="787"/>
      <point x="107" y="838"/>
      <point x="221" y="838" type="curve" smooth="yes"/>
    </contour>
    <contour>
      <point x="-50" y="1096" type="line"/>
      <point x="-50" y="1288" type="line"/>
      <point x="1273" y="1288" type="line"/>
      <point x="1273" y="1096" type="line"/>
    </contour>
    <contour>
      <point x="762" y="1132" type="line"/>
      <point x="1050" y="1132" type="line"/>
      <point x="1050" y="0" type="line"/>
      <point x="762" y="0" type="line"/>
    </contour>
  </outline>
</glyph>
<glyph name="phadeva" format="1">
  <advance width="1630"/>
  <unicode hex="092B"/>
  <outline>
    <contour>
      <point x="403" y="1187" type="line"/>
      <point x="403" y="728" type="line"/>
      <point x="403" y="624"/>
      <point x="450" y="564"/>
      <point x="543" y="564" type="curve" smooth="yes"/>
      <point x="624" y="564"/>
      <point x="689" y="595"/>
      <point x="770" y="662" type="curve"/>
      <point x="770" y="372" type="line"/>
      <point x="714" y="352"/>
      <point x="653" y="341"/>
      <point x="584" y="341" type="curve" smooth="yes"/>
      <point x="297" y="341"/>
      <point x="115" y="521"/>
      <point x="115" y="794" type="curve" smooth="yes"/>
      <point x="115" y="1187" type="line"/>
    </contour>
    <contour>
      <point x="977" y="440" type="curve"/>
      <point x="961" y="780" type="line"/>
      <point x="1029" y="796"/>
      <point x="1099" y="814"/>
      <point x="1200" y="814" type="curve" smooth="yes"/>
      <point x="1456" y="814"/>
      <point x="1611" y="644"/>
      <point x="1611" y="434" type="curve" smooth="yes"/>
      <point x="1611" y="308"/>
      <point x="1562" y="172"/>
      <point x="1480" y="71" type="curve"/>
      <point x="1250" y="160" type="line"/>
      <point x="1325" y="272"/>
      <point x="1366" y="369"/>
      <point x="1366" y="470" type="curve" smooth="yes"/>
      <point x="1366" y="539"/>
      <point x="1318" y="579"/>
      <point x="1245" y="579" type="curve" smooth="yes"/>
      <point x="1159" y="579"/>
      <point x="1057" y="533"/>
    </contour>
    <contour>
      <point x="-50" y="1096" type="line"/>
      <point x="-50" y="1288" type="line"/>
      <point x="1661" y="1288" type="line"/>
      <point x="1661" y="1096" type="line"/>
    </contour>
    <contour>
      <point x="731" y="1132" type="line"/>
      <point x="1019" y="1132" type="line"/>
      <point x="1019" y="0" type="line"/>
      <point x="731" y="0" type="line"/>
    </contour>
    <contour>
      <point x="836" y="8" type="move" name="x2"/>
    </contour>
    <contour>
      <point x="836" y="8" type="move" name="mark0"/>
    </contour>
    <contour>
      <point x="-2" y="8" type="move" name="x43"/>
    </contour>
  </outline>
</glyph>
<glyph name="ladeva" format="1">
  <advance width="1475"/>
  <unicode hex="0932"/>
  <outline>
    <contour>
      <point x="1102" y="982" type="line"/>
      <point x="1102" y="650" type="line"/>
      <point x="662" y="261" type="line"/>
      <point x="484" y="435" type="line"/>
    </contour>
    <contour>
      <point x="900" y="650" type="curve"/>
      <point x="733" y="505" type="line"/>
      <point x="634" y="629"/>
      <point x="571" y="661"/>
      <point x="471" y="661" type="curve" smooth="yes"/>
      <point x="364" y="661"/>
      <point x="288" y="573"/>
      <point x="288" y="479" type="curve" smooth="yes"/>
      <point x="287" y="379"/>
      <point x="343" y="271"/>
      <point x="474" y="121" type="curve"/>
      <point x="259" y="30" type="line"/>
      <point x="109" y="202"/>
      <point x="15" y="382"/>
      <point x="15" y="566" type="curve" smooth="yes"/>
      <point x="15" y="761"/>
      <point x="159" y="916"/>
      <point x="396" y="916" type="curve" smooth="yes"/>
      <point x="599" y="916"/>
      <point x="745" y="813"/>
    </contour>
    <contour>
      <point x="-55" y="1096" type="line"/>
      <point x="-55" y="1288" type="line"/>
      <point x="1517" y="1288" type="line"/>
      <point x="1517" y="1096" type="line"/>
    </contour>
    <contour>
      <point x="1006" y="1132" type="line"/>
      <point x="1294" y="1132" type="line"/>
      <point x="1294" y="0" type="line"/>
      <point x="1006" y="0" type="line"/>
    </contour>
  </outline>
</glyph>
<glyph name="llladeva" format="1">
  <advance width="1796"/>
  <unicode hex="0934"/>
  <outline>
    <component base="lladeva"/>
    <component base="nuktadeva" xOffset="1097" yOffset="87"/>
    <contour>
      <point x="1137" y="0" type="move" name="mark0"/>
    </contour>
  </outline>
</glyph>
<glyph name="shadeva" format="1">
  <advance width="1562"/>
  <unicode hex="0936"/>
  <outline>
    <contour>
      <point x="542" y="416" type="line"/>
      <point x="870" y="110" type="line"/>
      <point x="703" y="-43" type="line"/>
      <point x="332" y="309" type="line"/>
    </contour>
    <contour>
      <point x="246" y="232" type="curve" smooth="yes"/>
      <point x="131" y="232"/>
      <point x="83" y="312"/>
      <point x="83" y="401" type="curve" smooth="yes"/>
      <point x="83" y="498"/>
      <point x="156" y="610"/>
      <point x="259" y="610" type="curve" smooth="yes"/>
      <point x="333" y="610"/>
      <point x="391" y="569"/>
      <point x="469" y="492" type="curve"/>
      <point x="366" y="505" type="line"/>
      <point x="539" y="564"/>
      <point x="677" y="726"/>
      <point x="677" y="908" type="curve" smooth="yes"/>
      <point x="677" y="1023"/>
      <point x="586" y="1116"/>
      <point x="488" y="1116" type="curve" smooth="yes"/>
      <point x="424" y="1116"/>
      <point x="387" y="1075"/>
      <point x="389" y="1012" type="curve" smooth="yes"/>
      <point x="390" y="938"/>
      <point x="459" y="851"/>
      <point x="743" y="827" type="curve"/>
      <point x="676" y="655" type="line"/>
      <point x="284" y="701"/>
      <point x="128" y="877"/>
      <point x="128" y="1051" type="curve" smooth="yes"/>
      <point x="128" y="1189"/>
      <point x="228" y="1321"/>
      <point x="452" y="1321" type="curve" smooth="yes"/>
      <point x="731" y="1321"/>
      <point x="916" y="1133"/>
      <point x="916" y="867" type="curve" smooth="yes"/>
      <point x="916" y="528"/>
      <point x="496" y="232"/>
    </contour>
    <contour>
      <point x="1093" y="1132" type="line"/>
      <point x="1381" y="1132" type="line"/>
      <point x="1381" y="0" type="line"/>
      <point x="1093" y="0" type="line"/>
    </contour>
    <contour>
      <point x="1604" y="1096" type="line"/>
      <point x="953" y="1096" type="line"/>
      <point x="953" y="1288" type="line"/>
      <point x="1604" y="1288" type="line"/>
    </contour>
  </outline>
</glyph>
<glyph name="sadeva" format="1">
  <advance width="1504"/>
  <unicode hex="0938"/>
  <outline>
    <contour>
      <point x="762" y="85" type="line"/>
      <point x="559" y="-45" type="line"/>
      <point x="105" y="558" type="line"/>
      <point x="34" y="652"/>
      <point x="6" y="699"/>
      <point x="6" y="754" type="curve" smooth="yes"/>
      <point x="6" y="815"/>
      <point x="60" y="867"/>
      <point x="125" y="867" type="curve" smooth="yes"/>
      <point x="190" y="867"/>
      <point x="236" y="829"/>
      <point x="307" y="732" type="curve" smooth="yes"/>
      <point x="369" y="646" type="line"/>
      <point x="359" y="626" type="line"/>
    </contour>
    <contour>
      <point x="220" y="686" type="line"/>
      <point x="362" y="729"/>
      <point x="420" y="804"/>
      <point x="420" y="949" type="curve" smooth="yes"/>
      <point x="420" y="1147" type="line"/>
      <point x="708" y="1147" type="line"/>
      <point x="708" y="905" type="line"/>
      <point x="708" y="718"/>
      <point x="602" y="556"/>
      <point x="374" y="464" type="curve"/>
    </contour>
    <contour>
      <point x="-40" y="1096" type="line"/>
      <point x="-40" y="1288" type="line"/>
      <point x="1547" y="1288" type="line"/>
      <point x="1547" y="1096" type="line"/>
    </contour>
    <contour>
      <point x="472" y="537" type="curve"/>
      <point x="580" y="732" type="line"/>
      <point x="661" y="702"/>
      <point x="749" y="688"/>
      <point x="816" y="688" type="curve" smooth="yes"/>
      <point x="903" y="688"/>
      <point x="978" y="696"/>
      <point x="1060" y="719" type="curve"/>
      <point x="1060" y="474" type="line"/>
      <point x="1003" y="460"/>
      <point x="937" y="451"/>
      <point x="854" y="451" type="curve" smooth="yes"/>
      <point x="751" y="451"/>
      <point x="609" y="480"/>
    </contour>
    <contour>
      <point x="1035" y="1132" type="line"/>
      <point x="1323" y="1132" type="line"/>
      <point x="1323" y="0" type="line"/>
      <point x="1035" y="0" type="line"/>
    </contour>
  </outline>
</glyph>
<glyph name="hadeva" format="1">
  <advance width="1120"/>
  <unicode hex="0939"/>
  <outline>
    <contour>
      <point x="613" y="597" type="curve" smooth="yes"/>
      <point x="903" y="597"/>
      <point x="1042" y="442"/>
      <point x="1042" y="275" type="curve" smooth="yes"/>
      <point x="1042" y="199"/>
      <point x="1023" y="130"/>
      <point x="987" y="65" type="curve"/>
      <point x="756" y="115" type="line"/>
      <point x="777" y="158"/>
      <point x="794" y="205"/>
      <point x="794" y="264" type="curve" smooth="yes"/>
      <point x="794" y="323"/>
      <point x="745" y="384"/>
      <point x="636" y="384" type="curve" smooth="yes"/>
      <point x="507" y="384"/>
      <point x="421" y="291"/>
      <point x="421" y="188" type="curve" smooth="yes"/>
      <point x="421" y="63"/>
      <point x="533" y="-57"/>
      <point x="934" y="-113" type="curve"/>
      <point x="849" y="-303" type="line"/>
      <point x="370" y="-228"/>
      <point x="142" y="-35"/>
      <point x="142" y="209" type="curve" smooth="yes"/>
      <point x="142" y="409"/>
      <point x="320" y="597"/>
    </contour>
    <contour>
      <point x="1163" y="1096" type="line"/>
      <point x="-31" y="1096" type="line"/>
      <point x="-31" y="1288" type="line"/>
      <point x="1163" y="1288" type="line"/>
    </contour>
    <contour>
      <point x="666" y="1106" type="line"/>
      <point x="953" y="1106" type="line"/>
      <point x="953" y="750" type="line"/>
      <point x="495" y="750" type="line"/>
      <point x="384" y="750"/>
      <point x="341" y="705"/>
      <point x="341" y="645" type="curve" smooth="yes"/>
      <point x="341" y="588"/>
      <point x="379" y="550"/>
      <point x="483" y="517" type="curve"/>
      <point x="293" y="377" type="line"/>
      <point x="137" y="468"/>
      <point x="63" y="574"/>
      <point x="63" y="705" type="curve" smooth="yes"/>
      <point x="63" y="839"/>
      <point x="168" y="942"/>
      <point x="379" y="942" type="curve" smooth="yes"/>
      <point x="705" y="942" type="line"/>
      <point x="666" y="889" type="line"/>
    </contour>
  </outline>
</glyph>
<glyph name="nuktadeva" format="1">
  <advance width="5"/>
  <unicode hex="093C"/>
  <outline>
    <contour>
      <point x="0" y="0" type="line"/>
      <point x="5" y="0" type="line"/>
      <point x="5" y="20" type="line"/>
      <point x="0" y="20" type="line"/>
    </contour>
  </outline>
</glyph>
<glyph name="aavowelsigndeva" format="1">
  <advance width="607"/>
  <unicode hex="093E"/>
  <outline>
    <contour>
      <point x="138" y="1132" type="line"/>
      <point x="426" y="1132" type="line"/>
      <point x="426" y="0" type="line"/>
      <point x="138" y="0" type="line"/>
    </contour>
    <contour>
      <point x="650" y="1096" type="line"/>
      <point x="-45" y="1096" type="line"/>
      <point x="-45" y="1288" type="line"/>
      <point x="650" y="1288" type="line"/>
    </contour>
  </outline>
</glyph>
<glyph name="iivowelsigndeva" format="1">
  <advance width="607"/>
  <unicode hex="0940"/>
  <outline>
    <contour>
      <point x="132" y="1239" type="line"/>
      <point x="37" y="1443"/>
      <point x="-92" y="1568"/>
      <point x="-225" y="1568" type="curve" smooth="yes"/>
      <point x="-304" y="1568"/>
      <point x="-349" y="1519"/>
      <point x="-349" y="1457" type="curve" smooth="yes"/>
      <point x="-349" y="1391"/>
      <point x="-319" y="1328"/>
      <point x="-254" y="1253" type="curve"/>
      <point x="-515" y="1253" type="line"/>
      <point x="-572" y="1319"/>
      <point x="-622" y="1417"/>
      <point x="-622" y="1521" type="curve" smooth="yes"/>
      <point x="-622" y="1655"/>
      <point x="-528" y="1805"/>
      <point x="-303" y="1805" type="curve" smooth="yes"/>
      <point x="-14" y="1805"/>
      <point x="232" y="1602"/>
      <point x="391" y="1239" type="curve"/>
    </contour>
    <component base="aavowelsigndeva"/>
  </outline>
</glyph>
<glyph name="eshortvowelsigndeva" format="1">
  <advance width="20"/>
  <unicode hex="0946"/>
  <outline>
    <contour>
      <point x="0" y="0" type="line"/>
      <point x="20" y="0" type="line"/>
      <point x="20" y="20" type="line"/>
      <point x="0" y="20" type="line"/>
    </contour>
  </outline>
</glyph>
<glyph name="udattadeva" format="1">
  <advance width="71"/>
  <unicode hex="0951"/>
  <outline>
    <contour>
      <point x="-122" y="1782" type="line"/>
      <point x="-122" y="1401" type="line"/>
      <point x="-425" y="1401" type="line"/>
      <point x="-425" y="1782" type="line"/>
    </contour>
    <contour>
      <point x="-403" y="1271" type="move" name="_mark0"/>
    </contour>
    <contour>
      <point x="35" y="-3" type="move" name="x4"/>
    </contour>
  </outline>
</glyph>
<glyph name="uni0954" format="1">
  <advance width="71"/>
  <unicode hex="0954"/>
  <outline>
    <contour>
      <point x="-268" y="1804" type="line"/>
      <point x="73" y="1804" type="line"/>
      <point x="-174" y="1405" type="line"/>
      <point x="-423" y="1405" type="line"/>
    </contour>
    <contour>
      <point x="-403" y="1271" type="move" name="_mark0"/>
    </contour>
    <contour>
      <point x="35" y="-3" type="move" name="x4"/>
    </contour>
  </outline>
</glyph>
<glyph name="ghhadeva" format="1">
  <advance width="1407"/>
  <unicode hex="095A"/>
  <outline>
    <contour>
      <point x="0" y="0" type="line"/>
      <point x="1407" y="0" type="line"/>
      <point x="1407" y="20" type="line"/>
      <point x="0" y="20" type="line"/>
    </contour>
  </outline>
</glyph>
<glyph name="fadeva" format="1">
  <advance width="1705"/>
  <unicode hex="095E"/>
  <outline>
    <contour>
      <point x="0" y="0" type="line"/>
      <point x="1705" y="0" type="line"/>
      <point x="1705" y="20" type="line"/>
      <point x="0" y="20" type="line"/>
    </contour>
  </outline>
</glyph>
<glyph name="sixdeva" format="1">
  <advance width="1322"/>
  <unicode hex="096C"/>
  <outline>
    <contour>
      <point x="0" y="0" type="line"/>
      <point x="1322" y="0" type="line"/>
      <point x="1322" y="20" type="line"/>
      <point x="0" y="20" type="line"/>
    </contour>
  </outline>
</glyph>
<glyph name="eightdeva" format="1">
  <advance width="1293"/>
  <unicode hex="096E"/>
  <outline>
    <contour>
      <point x="785" y="1308" type="line"/>
      <point x="1008" y="1146" type="line"/>
      <point x="623" y="637" type="line"/>
      <point x="553" y="544"/>
      <point x="509" y="471"/>
      <point x="509" y="383" type="curve" smooth="yes"/>
      <point x="509" y="288"/>
      <point x="581" y="238"/>
      <point x="688" y="238" type="curve" smooth="yes"/>
      <point x="803" y="238"/>
      <point x="937" y="290"/>
      <point x="1108" y="420" type="curve"/>
      <point x="1254" y="198" type="line"/>
      <point x="1094" y="73"/>
      <point x="921" y="0"/>
      <point x="730" y="0" type="curve" smooth="yes"/>
      <point x="469" y="0"/>
      <point x="245" y="193"/>
      <point x="245" y="437" type="curve" smooth="yes"/>
      <point x="245" y="579"/>
      <point x="310" y="686"/>
      <point x="405" y="811" type="curve" smooth="yes"/>
    </contour>
  </outline>
</glyph>
<glyph name="jabardeva" format="1">
  <advance width="1766"/>
  <unicode hex="097C"/>
  <outline>
    <contour>
      <point x="0" y="0" type="line"/>
      <point x="1766" y="0" type="line"/>
      <point x="1766" y="20" type="line"/>
      <point x="0" y="20" type="line"/>
    </contour>
  </outline>
</glyph>
<glyph name="babardeva" format="1">
  <advance width="1383"/>
  <unicode hex="097F"/>
  <outline>
    <contour>
      <point x="0" y="0" type="line"/>
      <point x="1383" y="0" type="line"/>
      <point x="1383" y="20" type="line"/>
      <point x="0" y="20" type="line"/>
    </contour>
  </outline>
</glyph>
<glyph name="uni200C" format="1">
  <advance width="71"/>
  <unicode hex="200C"/>
  <outline>
    <contour>
      <point x="-43" y="-341" type="line"/>
      <point x="-43" y="1615" type="line"/>
      <point x="114" y="1615" type="line"/>
      <point x="114" y="-341" type="line"/>
    </contour>
  </outline>
</glyph>
<glyph name="bhaprehalfdeva" format="1">
  <advance width="935"/>
  <outline>
    <contour>
      <point x="422" y="879" type="line"/>
      <point x="422" y="925"/>
      <point x="408" y="909"/>
      <point x="353" y="909" type="curve" smooth="yes"/>
      <point x="308" y="909"/>
      <point x="287" y="895"/>
      <point x="280" y="869" type="curve" smooth="yes"/>
      <point x="280" y="823"/>
      <point x="310" y="786"/>
      <point x="420" y="775" type="curve"/>
      <point x="409" y="782"/>
      <point x="391" y="653"/>
      <point x="384" y="664" type="curve"/>
      <point x="172" y="664"/>
      <point x="28" y="765"/>
      <point x="28" y="940" type="curve" smooth="yes"/>
      <point x="22" y="1044"/>
      <point x="84" y="1144"/>
      <point x="262" y="1155" type="curve" smooth="yes"/>
      <point x="476" y="1178"/>
      <point x="644" y="1044"/>
      <point x="658" y="856" type="curve" smooth="yes"/>
      <point x="658" y="717" type="line"/>
      <point x="658" y="735"/>
      <point x="635" y="786"/>
      <point x="629" y="804" type="curve"/>
      <point x="969" y="804" type="line"/>
      <point x="960" y="830"/>
      <point x="941" y="640"/>
      <point x="914" y="640" type="curve"/>
      <point x="890" y="640"/>
      <point x="517" y="629"/>
      <point x="517" y="603" type="curve"/>
      <point x="517" y="571"/>
      <point x="589" y="598"/>
      <point x="615" y="595" type="curve"/>
      <point x="613" y="466" type="line"/>
      <point x="572" y="405"/>
      <point x="508" y="381"/>
      <point x="442" y="428" type="curve" smooth="yes"/>
      <point x="306" y="468"/>
      <point x="179" y="653"/>
      <point x="216" y="762" type="curve" smooth="yes"/>
      <point x="320" y="832"/>
      <point x="337" y="746"/>
      <point x="389" y="676" type="curve" smooth="yes"/>
      <point x="570" y="676" type="line"/>
      <point x="543" y="630" type="line"/>
    </contour>
    <contour>
      <point x="1129" y="1092" type="line"/>
      <point x="814" y="1117" type="line"/>
      <point x="825" y="1288" type="line"/>
      <point x="1140" y="1263" type="line"/>
    </contour>
  </outline>
</glyph>
<glyph name="caraprehalfdeva" format="1">
  <advance width="996"/>
  <outline>
    <contour>
      <point x="0" y="0" type="line"/>
      <point x="996" y="0" type="line"/>
      <point x="996" y="20" type="line"/>
      <point x="0" y="20" type="line"/>
    </contour>
  </outline>
</glyph>
<glyph name="chayadeva" format="1">
  <advance width="2967"/>
  <outline>
    <contour>
      <point x="0" y="0" type="line"/>
      <point x="2967" y="0" type="line"/>
      <point x="2967" y="20" type="line"/>
      <point x="0" y="20" type="line"/>
    </contour>
  </outline>
</glyph>
<glyph name="dabhadeva" format="1">
  <advance width="1913"/>
  <outline>
    <contour>
      <point x="0" y="0" type="line"/>
      <point x="1913" y="0" type="line"/>
      <point x="1913" y="20" type="line"/>
      <point x="0" y="20" type="line"/>
    </contour>
  </outline>
</glyph>
<glyph name="ddaradeva" format="1">
  <advance width="1167"/>
  <outline>
    <component base="vattudeva" xOffset="1347"/>
    <component base="ddadeva"/>
    <contour>
      <point x="1042" y="1274" type="move" name="mark0"/>
    </contour>
  </outline>
</glyph>
<glyph name="evowelsignrephdeva" format="1">
  <advance width="0"/>
  <outline>
    <contour>
      <point x="-444" y="1244" type="line"/>
      <point x="-522" y="1350"/>
      <point x="-567" y="1391"/>
      <point x="-567" y="1507" type="curve" smooth="yes"/>
      <point x="-567" y="1649"/>
      <point x="-424" y="1789"/>
      <point x="-210" y="1789" type="curve" smooth="yes"/>
      <point x="-86" y="1789"/>
      <point x="-39" y="1781"/>
      <point x="30" y="1767" type="curve"/>
      <point x="16" y="1580" type="line"/>
      <point x="-23" y="1588"/>
      <point x="-48" y="1590"/>
      <point x="-100" y="1590" type="curve" smooth="yes"/>
      <point x="-203" y="1590"/>
      <point x="-267" y="1513"/>
      <point x="-267" y="1421" type="curve" smooth="yes"/>
      <point x="-267" y="1370"/>
      <point x="-240" y="1320"/>
      <point x="-190" y="1244" type="curve"/>
    </contour>
    <component base="evowelsigndeva"/>
    <contour>
      <point x="49" y="8" type="move" name="x24"/>
    </contour>
    <contour>
      <point x="-424" y="1282" type="move" name="_mark0"/>
    </contour>
  </outline>
</glyph>
<glyph name="garadeva" format="1">
  <advance width="1369"/>
  <outline>
    <contour>
      <point x="0" y="0" type="line"/>
      <point x="1369" y="0" type="line"/>
      <point x="1369" y="20" type="line"/>
      <point x="0" y="20" type="line"/>
    </contour>
  </outline>
</glyph>
<glyph name="hanuktadeva" format="1">
  <advance width="1202"/>
  <outline>
    <contour>
      <point x="0" y="0" type="line"/>
      <point x="1202" y="0" type="line"/>
      <point x="1202" y="20" type="line"/>
      <point x="0" y="20" type="line"/>
    </contour>
  </outline>
</glyph>
<glyph name="hanuktaprehalfdeva" format="1">
  <advance width="1197"/>
  <outline>
    <contour>
      <point x="0" y="0" type="line"/>
      <point x="1197" y="0" type="line"/>
      <point x="1197" y="20" type="line"/>
      <point x="0" y="20" type="line"/>
    </contour>
  </outline>
</glyph>
<glyph name="haraudeva" format="1">
  <advance width="1367"/>
  <outline>
    <contour>
      <point x="0" y="0" type="line"/>
      <point x="1367" y="0" type="line"/>
      <point x="1367" y="20" type="line"/>
      <point x="0" y="20" type="line"/>
    </contour>
  </outline>
</glyph>
<glyph name="hayadeva" format="1">
  <advance width="1953"/>
  <outline>
    <contour>
      <point x="0" y="0" type="line"/>
      <point x="1953" y="0" type="line"/>
      <point x="1953" y="20" type="line"/>
      <point x="0" y="20" type="line"/>
    </contour>
  </outline>
</glyph>
<glyph name="inuktadeva" format="1">
  <advance width="1101"/>
  <outline>
    <contour>
      <point x="0" y="0" type="line"/>
      <point x="1101" y="0" type="line"/>
      <point x="1101" y="20" type="line"/>
      <point x="0" y="20" type="line"/>
    </contour>
  </outline>
</glyph>
<glyph name="ivowelsign03deva" format="1">
  <advance width="648"/>
  <outline>
    <contour>
      <point x="153" y="1254" type="line"/>
      <point x="153" y="1346" type="line"/>
      <point x="153" y="1596"/>
      <point x="324" y="1790"/>
      <point x="665" y="1790" type="curve" smooth="yes"/>
      <point x="1031" y="1790"/>
      <point x="1371" y="1600"/>
      <point x="1668" y="1255" type="curve"/>
      <point x="1371" y="1255" type="line"/>
      <point x="1136" y="1462"/>
      <point x="944" y="1547"/>
      <point x="724" y="1547" type="curve" smooth="yes"/>
      <point x="536" y="1547"/>
      <point x="442" y="1447"/>
      <point x="442" y="1323" type="curve" smooth="yes"/>
      <point x="442" y="1254" type="line"/>
    </contour>
    <component base="aavowelsigndeva"/>
  </outline>
</glyph>
<glyph name="japrehalfdeva" format="1">
  <advance width="1083"/>
  <outline>
    <contour>
      <point x="-34" y="1092" type="line"/>
      <point x="-34" y="1288" type="line"/>
      <point x="1219" y="1288" type="line"/>
      <point x="1219" y="1092" type="line"/>
    </contour>
    <contour>
      <point x="758" y="668" type="line"/>
      <point x="736" y="668"/>
      <point x="749" y="726"/>
      <point x="727" y="730" type="curve"/>
      <point x="830" y="648"/>
      <point x="917" y="526"/>
      <point x="917" y="391" type="curve" smooth="yes"/>
      <point x="917" y="203"/>
      <point x="781" y="80"/>
      <point x="579" y="80" type="curve" smooth="yes"/>
      <point x="344" y="80"/>
      <point x="163" y="274"/>
      <point x="-8" y="519" type="curve"/>
      <point x="136" y="705" type="line"/>
      <point x="298" y="486"/>
      <point x="403" y="338"/>
      <point x="526" y="338" type="curve" smooth="yes"/>
      <point x="603" y="338"/>
      <point x="650" y="383"/>
      <point x="650" y="457" type="curve" smooth="yes"/>
      <point x="650" y="548"/>
      <point x="579" y="645"/>
      <point x="423" y="693" type="curve"/>
      <point x="435" y="900" type="line"/>
      <point x="1166" y="900" type="line"/>
      <point x="1166" y="668" type="line"/>
    </contour>
  </outline>
</glyph>
<glyph name="jhanuktaprehalfdeva" format="1">
  <advance width="1293"/>
  <outline>
    <contour>
      <point x="0" y="0" type="line"/>
      <point x="1293" y="0" type="line"/>
      <point x="1293" y="20" type="line"/>
      <point x="0" y="20" type="line"/>
    </contour>
  </outline>
</glyph>
<glyph name="kanuktaradeva" format="1">
  <advance width="1851"/>
  <outline>
    <component base="karadeva"/>
    <component base="nuktadeva" xOffset="1137" yOffset="63"/>
    <contour>
      <point x="883" y="0" type="move" name="mark0"/>
    </contour>
  </outline>
</glyph>
<glyph name="kassaradeva" format="1">
  <advance width="1882"/>
  <outline>
    <contour>
      <point x="0" y="0" type="line"/>
      <point x="1882" y="0" type="line"/>
      <point x="1882" y="20" type="line"/>
      <point x="0" y="20" type="line"/>
    </contour>
  </outline>
</glyph>
<glyph name="llanuktaradeva" format="1">
  <advance width="1796"/>
  <outline>
    <component base="lladeva"/>
    <component base="vattudeva" xOffset="1622"/>
    <component base="nuktadeva" xOffset="1025" yOffset="135"/>
    <contour>
      <point x="1137" y="1274" type="move" name="mark0"/>
    </contour>
  </outline>
</glyph>
<glyph name="naraprehalfdeva" format="1">
  <advance width="939"/>
  <outline>
    <contour>
      <point x="0" y="0" type="line"/>
      <point x="939" y="0" type="line"/>
      <point x="939" y="20" type="line"/>
      <point x="0" y="20" type="line"/>
    </contour>
  </outline>
</glyph>
<glyph name="nganuktadeva" format="1">
  <advance width="1629"/>
  <outline>
    <component base="ngadeva"/>
    <component base="nuktadeva" xOffset="1423"/>
    <contour>
      <point x="1011" y="1274" type="move" name="mark0"/>
    </contour>
  </outline>
</glyph>
<glyph name="nnaradeva" format="1">
  <advance width="1717"/>
  <outline>
    <contour>
      <point x="0" y="0" type="line"/>
      <point x="1717" y="0" type="line"/>
      <point x="1717" y="20" type="line"/>
      <point x="0" y="20" type="line"/>
    </contour>
  </outline>
</glyph>
<glyph name="pharaprehalfdeva" format="1">
  <advance width="1435"/>
  <outline>
    <contour>
      <point x="0" y="0" type="line"/>
      <point x="1435" y="0" type="line"/>
      <point x="1435" y="20" type="line"/>
      <point x="0" y="20" type="line"/>
    </contour>
  </outline>
</glyph>
<glyph name="rauudeva" format="1">
  <advance width="1842"/>
  <outline>
    <contour>
      <point x="0" y="0" type="line"/>
      <point x="1842" y="0" type="line"/>
      <point x="1842" y="20" type="line"/>
      <point x="0" y="20" type="line"/>
    </contour>
  </outline>
</glyph>
<glyph name="rephdeva" format="1">
  <advance width="-1"/>
  <outline>
    <contour>
      <point x="-465" y="1244" type="line"/>
      <point x="-552" y="1349"/>
      <point x="-597" y="1440"/>
      <point x="-597" y="1555" type="curve" smooth="yes"/>
      <point x="-597" y="1688"/>
      <point x="-491" y="1808"/>
      <point x="-302" y="1808" type="curve" smooth="yes"/>
      <point x="-174" y="1808"/>
      <point x="-132" y="1801"/>
      <point x="-60" y="1787" type="curve"/>
      <point x="-70" y="1614" type="line"/>
      <point x="-112" y="1621"/>
      <point x="-140" y="1626"/>
      <point x="-193" y="1626" type="curve" smooth="yes"/>
      <point x="-274" y="1626"/>
      <point x="-325" y="1566"/>
      <point x="-325" y="1480" type="curve" smooth="yes"/>
      <point x="-325" y="1402"/>
      <point x="-290" y="1327"/>
      <point x="-226" y="1244" type="curve"/>
    </contour>
    <contour>
      <point x="-424" y="1282" type="move" name="_mark0"/>
    </contour>
    <contour>
      <point x="49" y="8" type="move" name="x17"/>
    </contour>
  </outline>
</glyph>
<glyph name="rvocalicnuktadeva" format="1">
  <advance width="2029"/>
  <outline>
    <component base="rvocalicdeva"/>
    <component base="nuktadeva" xOffset="1077" yOffset="134"/>
    <contour>
      <point x="874" y="1274" type="move" name="mark0"/>
    </contour>
  </outline>
</glyph>
<glyph name="rvocalicvowelsignlowdeva" format="1">
  <advance width="71"/>
  <outline>
    <contour>
      <point x="140" y="-735" type="line"/>
      <point x="35" y="-784"/>
      <point x="-76" y="-809"/>
      <point x="-193" y="-809" type="curve" smooth="yes"/>
      <point x="-330" y="-809"/>
      <point x="-442" y="-761"/>
      <point x="-493" y="-673" type="curve"/>
      <point x="-493" y="-625"/>
      <point x="-449" y="-600"/>
      <point x="-405" y="-596" type="curve"/>
      <point x="-462" y="-551"/>
      <point x="-493" y="-518"/>
      <point x="-493" y="-462" type="curve" smooth="yes"/>
      <point x="-527" y="-328"/>
      <point x="-426" y="-253"/>
      <point x="-190" y="-276" type="curve"/>
      <point x="-184" y="-363"/>
      <point x="-146" y="-430"/>
      <point x="-110" y="-484" type="curve"/>
      <point x="-194" y="-490"/>
      <point x="-228" y="-515"/>
      <point x="-217" y="-561" type="curve" smooth="yes"/>
      <point x="-217" y="-602"/>
      <point x="-196" y="-623"/>
      <point x="-153" y="-623" type="curve" smooth="yes"/>
      <point x="-99" y="-621"/>
      <point x="-35" y="-596"/>
      <point x="62" y="-550" type="curve"/>
    </contour>
    <contour>
      <point x="-403" y="-3" type="move" name="_mark0"/>
    </contour>
  </outline>
</glyph>
<glyph name="saraprehalfdeva" format="1">
  <advance width="1311"/>
  <outline>
    <contour>
      <point x="0" y="0" type="line"/>
      <point x="1311" y="0" type="line"/>
      <point x="1311" y="20" type="line"/>
      <point x="0" y="20" type="line"/>
    </contour>
  </outline>
</glyph>
<glyph name="shacaprehalfdeva" format="1">
  <advance width="1259"/>
  <outline>
    <contour>
      <point x="0" y="0" type="line"/>
      <point x="1259" y="0" type="line"/>
      <point x="1259" y="20" type="line"/>
      <point x="0" y="20" type="line"/>
    </contour>
  </outline>
</glyph>
<glyph name="ssaprehalfdeva" format="1">
  <advance width="754"/>
  <outline>
    <contour>
      <point x="0" y="0" type="line"/>
      <point x="754" y="0" type="line"/>
      <point x="754" y="20" type="line"/>
      <point x="0" y="20" type="line"/>
    </contour>
  </outline>
</glyph>
<glyph name="tthayadeva" format="1">
  <advance width="2676"/>
  <outline>
    <contour>
      <point x="0" y="0" type="line"/>
      <point x="2676" y="0" type="line"/>
      <point x="2676" y="20" type="line"/>
      <point x="0" y="20" type="line"/>
    </contour>
  </outline>
</glyph>
<glyph name="uunuktadeva" format="1">
  <advance width="1530"/>
  <outline>
    <component base="uudeva"/>
    <component base="nuktadeva" xOffset="1258"/>
    <contour>
      <point x="854" y="1274" type="move" name="mark0"/>
    </contour>
  </outline>
</glyph>
<glyph name="vattudeva" format="1">
  <advance width="5"/>
  <outline>
    <contour>
      <point x="0" y="0" type="line"/>
      <point x="5" y="0" type="line"/>
      <point x="5" y="20" type="line"/>
      <point x="0" y="20" type="line"/>
    </contour>
  </outline>
</glyph>
<glyph name="vayadeva" format="1">
  <advance width="2178"/>
  <outline>
    <contour>
      <point x="0" y="0" type="line"/>
      <point x="2178" y="0" type="line"/>
      <point x="2178" y="20" type="line"/>
      <point x="0" y="20" type="line"/>
    </contour>
  </outline>
</glyph>
